<?xml version="1.0" standalone="no"?>
<!DOCTYPE svg PUBLIC "-//W3C//DTD SVG 20010904//EN"
 "http://www.w3.org/TR/2001/REC-SVG-20010904/DTD/svg10.dtd">
<svg version="1.0" xmlns="http://www.w3.org/2000/svg"
 width="200.000000pt" height="200.000000pt" viewBox="0 0 200.000000 200.000000"
 preserveAspectRatio="xMidYMid meet">

<g transform="translate(0.000000,200.000000) scale(0.100000,-0.100000)"
fill="#000000" stroke="none">
<path d="M762 1392 c-9 -7 -12 -49 -10 -178 l3 -169 103 -3 102 -3 0 -39 c0
-32 -4 -39 -22 -43 -13 -2 18 -5 67 -5 65 -1 83 2 67 9 -19 7 -23 15 -20 41
l3 33 100 3 c64 2 102 7 107 15 13 21 10 321 -4 335 -14 14 -474 17 -496 4z
m487 -16 c8 -9 11 -63 9 -167 l-3 -154 -247 -3 -248 -2 0 163 c0 90 3 167 7
170 3 4 111 7 238 7 186 0 235 -3 244 -14z m-209 -376 c0 -39 -1 -40 -35 -40
-34 0 -35 1 -35 40 0 39 1 40 35 40 34 0 35 -1 35 -40z"/>
<path d="M1036 1302 c-11 -19 -66 -164 -65 -175 0 -12 12 16 58 131 18 45 22
68 7 44z"/>
<path d="M863 1250 c-29 -17 -53 -32 -53 -34 0 -7 113 -66 118 -62 2 3 -19 16
-47 30 -28 15 -51 28 -51 31 0 3 24 18 53 35 28 16 48 30 42 30 -5 0 -34 -14
-62 -30z"/>
<path d="M1093 1273 c3 -5 24 -18 47 -28 22 -10 40 -21 40 -26 0 -4 -20 -19
-45 -33 -25 -15 -45 -29 -45 -32 0 -8 104 53 107 63 2 5 -18 20 -44 33 -65 33
-67 34 -60 23z"/>
<path d="M1168 874 c7 -3 12 -26 12 -58 0 -52 0 -53 -29 -48 -23 3 -33 -2 -47
-22 -30 -47 14 -105 58 -77 15 9 23 9 34 0 8 -6 18 -9 21 -5 4 4 2 10 -4 14
-8 5 -13 43 -15 102 -3 86 -5 95 -23 97 -11 2 -14 0 -7 -3z m7 -153 c0 -41
-25 -62 -49 -42 -16 14 -22 62 -9 75 4 4 19 6 33 4 21 -3 25 -8 25 -37z"/>
<path d="M128 829 c-10 -5 -18 -21 -18 -35 0 -25 9 -31 75 -50 35 -11 45 -42
19 -61 -26 -19 -61 -16 -84 7 -20 20 -20 20 -20 0 0 -40 108 -38 134 3 17 26
-4 50 -58 65 -26 8 -50 20 -53 28 -8 21 16 44 46 44 30 0 46 -9 54 -30 4 -10
6 -8 6 6 1 33 -61 47 -101 23z"/>
<path d="M788 828 c7 -7 13 -45 14 -92 1 -45 3 -64 5 -43 4 36 5 37 44 37 35
0 41 -4 56 -35 9 -19 20 -35 25 -35 5 0 -1 18 -12 39 -16 33 -17 40 -5 45 9 3
15 19 15 41 0 43 -23 55 -103 55 -40 0 -48 -3 -39 -12z m106 -8 c18 -7 26 -17
26 -34 0 -31 -29 -48 -73 -44 -27 2 -33 8 -35 31 -2 16 -1 35 2 43 6 16 43 18
80 4z"/>
<path d="M670 819 c0 -5 5 -7 10 -4 6 3 10 8 10 11 0 2 -4 4 -10 4 -5 0 -10
-5 -10 -11z"/>
<path d="M1490 793 c0 -19 -6 -23 -29 -23 -36 0 -45 -12 -48 -65 -2 -22 -4
-51 -6 -65 -3 -34 43 -51 81 -29 40 22 34 42 -15 53 -46 10 -58 26 -19 26 29
0 50 23 43 49 -2 10 -1 25 4 33 4 7 4 20 -1 28 -8 12 -10 10 -10 -7z m-3 -49
c8 -21 -19 -46 -40 -38 -17 6 -23 35 -10 47 12 13 44 7 50 -9z m-18 -90 c17
-4 31 -13 31 -20 0 -8 -3 -14 -7 -14 -5 0 -17 -3 -29 -6 -23 -6 -58 21 -49 37
7 11 13 11 54 3z"/>
<path d="M268 763 c7 -3 12 -23 12 -48 0 -35 4 -45 20 -50 10 -3 28 -2 38 4
13 7 22 7 30 -1 7 -7 15 -8 19 -3 5 4 2 10 -4 12 -8 3 -14 24 -15 51 -1 42 -2
43 -5 11 -5 -41 -34 -75 -58 -66 -10 5 -15 20 -15 52 0 36 -3 45 -17 44 -11 0
-13 -3 -5 -6z"/>
<path d="M427 764 c-17 -18 -5 -42 26 -50 39 -12 43 -38 5 -42 -20 -2 -28 1
-28 12 0 9 -4 16 -10 16 -21 0 -9 -30 14 -36 66 -16 93 41 28 60 -34 10 -38
29 -7 35 10 2 25 -5 33 -15 13 -18 14 -18 10 1 -2 14 -12 21 -33 23 -17 2 -34
0 -38 -4z"/>
<path d="M546 754 c-9 -8 -16 -26 -16 -38 0 -45 63 -74 90 -41 15 18 7 19 -19
3 -15 -9 -23 -9 -35 1 -26 22 -19 31 24 31 32 0 40 4 40 18 0 40 -54 57 -84
26z m63 -7 c14 -18 4 -27 -31 -27 -26 0 -37 17 -21 33 11 12 40 8 52 -6z"/>
<path d="M658 763 c20 -8 16 -122 -5 -146 -14 -16 -15 -19 -3 -15 25 8 40 49
40 111 0 53 -2 57 -22 56 -13 0 -17 -3 -10 -6z"/>
<path d="M976 754 c-22 -21 -20 -57 3 -78 26 -24 62 -17 80 15 13 24 13 29 -2
53 -20 30 -57 35 -81 10z m58 0 c20 -8 21 -57 1 -74 -34 -28 -77 18 -55 60 11
21 26 25 54 14z"/>
<path d="M1238 762 c7 -2 12 -22 12 -47 0 -24 5 -47 10 -50 6 -4 10 9 10 33 0
40 28 82 37 55 6 -18 23 -16 23 1 0 11 -13 15 -52 14 -29 -1 -47 -3 -40 -6z"/>
<path d="M1348 764 c7 -3 12 -26 12 -57 0 -36 3 -48 11 -40 5 5 9 30 7 54 -2
35 -7 44 -23 46 -11 2 -14 0 -7 -3z"/>
<path d="M1527 762 c6 -4 13 -25 15 -46 4 -46 28 -67 57 -49 13 8 21 9 30 0 6
-6 14 -7 18 -2 5 4 2 10 -4 12 -8 3 -14 24 -15 51 l-1 47 -4 -42 c-6 -66 -63
-87 -63 -23 0 40 -9 60 -29 60 -11 0 -12 -3 -4 -8z"/>
<path d="M1692 758 c-20 -20 -15 -76 9 -88 23 -13 69 -6 69 10 0 6 -10 5 -25
-2 -19 -8 -28 -8 -40 2 -25 21 -17 30 26 30 38 0 40 1 37 28 -2 22 -9 28 -33
30 -17 2 -36 -3 -43 -10z m66 -20 c3 -15 -4 -18 -32 -18 -38 0 -44 8 -24 28
17 17 52 11 56 -10z"/>
<path d="M1800 755 c0 -8 5 -15 10 -15 6 0 10 5 10 10 0 6 15 10 33 10 l32 -1
-43 -37 c-56 -49 -55 -62 8 -62 45 0 50 2 50 23 -1 20 -2 20 -11 5 -10 -19
-69 -26 -69 -9 0 6 15 22 34 36 55 42 54 55 -4 55 -38 0 -50 -4 -50 -15z"/>
</g>
</svg>
