<?xml version="1.0" encoding="utf-8"?>
<!-- Generator: Adobe Illustrator 22.1.0, SVG Export Plug-In . SVG Version: 6.00 Build 0)  -->
<svg version="1.1" xmlns="http://www.w3.org/2000/svg" xmlns:xlink="http://www.w3.org/1999/xlink" x="0px" y="0px"
	 viewBox="0 0 500 500" style="enable-background:new 0 0 500 500;" xml:space="preserve">
<style type="text/css">
	.st0{display:none;fill:#E1E1FC;}
	.st1{opacity:0.68;fill:#F0F0FC;}
	.st2{fill:#F0F0FC;}
	.st3{fill:#040962;}
	.st4{fill:#A4A4F4;}
	.st5{fill:#3C4AA0;}
	.st6{fill:#111A75;}
	.st7{fill:#B4B0FA;}
	.st8{fill:#101A77;}
	.st9{fill:#FCE8D4;}
	.st10{fill:#FE5A75;}
	.st11{fill:#00BDFF;}
	.st12{fill:#00AEF9;}
	.st13{fill:#FFCB9C;}
	.st14{fill:#FF8DA3;}
	.st15{fill:#FFFFFF;}
	.st16{fill:#FCBFAC;}
	.st17{fill:#F9FBFC;}
	.st18{fill:#6161C9;}
	.st19{fill:#7F7FDD;}
	.st20{opacity:0.28;fill:#6161C9;}
	.st21{fill:#553F77;}
	.st22{fill:#5A91FF;}
	.st23{fill:#362656;}
	.st24{fill:#7859B5;}
	.st25{fill:#735F99;}
	.st26{fill:#FF6498;}
	.st27{fill:#FFEE4D;}
	.st28{fill:#9595D8;}
	.st29{fill:#AAAAAA;}
	.st30{fill:#929293;}
	.st31{fill:#E6E6E6;}
	.st32{fill:#D6D6D8;}
	.st33{fill:#E8E8E8;}
	.st34{fill:#333333;}
	.st35{fill:#8585C9;}
</style>
<g id="background">
	<rect class="st0" width="500" height="500"/>
</g>
<g id="objects">
	<g>
		<g>
			<path class="st1" d="M355.1,395.7H89.7c-12.8,0-23.2-10.4-23.2-23.2V145.2c0-12.8,10.4-23.2,23.2-23.2h265.4
				c12.8,0,23.2,10.4,23.2,23.2v227.3C378.3,385.3,367.9,395.7,355.1,395.7z"/>
			<circle class="st2" cx="354.5" cy="110.5" r="4.9"/>
			<circle class="st2" cx="341.4" cy="110.5" r="4.9"/>
			<circle class="st2" cx="328.3" cy="110.5" r="4.9"/>
			<path class="st2" d="M52.6,269.8c0-2.7,2.2-4.9,4.9-4.9s4.9,2.2,4.9,4.9c0,2.7-2.2,4.9-4.9,4.9S52.6,272.5,52.6,269.8z"/>
			<path class="st2" d="M52.6,283.2c0-2.7,2.2-4.9,4.9-4.9s4.9,2.2,4.9,4.9s-2.2,4.9-4.9,4.9S52.6,285.9,52.6,283.2z"/>
			<path class="st2" d="M52.6,296.6c0-2.7,2.2-4.9,4.9-4.9s4.9,2.2,4.9,4.9s-2.2,4.9-4.9,4.9S52.6,299.3,52.6,296.6z"/>
		</g>
		<g>
			<ellipse class="st3" cx="239.3" cy="419" rx="6.3" ry="7.9"/>
			<ellipse class="st3" cx="305.6" cy="419" rx="6.3" ry="7.9"/>
		</g>
		<path class="st4" d="M306.4,402h-18.9c-5.3,0-9.5-4.3-9.5-9.5v-75.1h-12.2v75.1c0,5.3-4.3,9.5-9.5,9.5h-17.7h-1.9
			c-2.9,0-5.2,2.3-5.2,5.2v1.1v9.3c0,0.6,0.5,1.2,1.2,1.2h4.7c0.6,0,1.2-0.5,1.2-1.2v-4.1c0-2.9,2.3-5.2,5.2-5.2h57.5
			c2.9,0,5.2,2.3,5.2,5.2v4.1c0,0.6,0.5,1.2,1.2,1.2h4.7c0.6,0,1.2-0.5,1.2-1.2v-9.3v-1.1c0-2.9-2.3-5.2-5.2-5.2H306.4z"/>
		<path class="st5" d="M278.7,326h-14.6c-1.1,0-1.9-0.9-1.9-1.9v-4.5c0-1.1,0.9-1.9,1.9-1.9h14.6c1.1,0,1.9,0.9,1.9,1.9v4.5
			C280.6,325.2,279.7,326,278.7,326z"/>
		<g>
			<path class="st6" d="M332.4,308.7v7.6c0,1.9-1.5,3.4-3.4,3.4H223.4l0.1-11.1H332.4z"/>
			<path class="st6" d="M356.1,180.2l-23.7,128.5h-28c0,0,7.9-2.7,9.1-20.8c0.6-9.1-0.6-22.1-5.4-40.7h1.4c5.4,0,9.8-4.4,9.8-9.8
				v-68c0-1.1-0.1-2.1-0.4-3h25.8C351.9,166.4,357.5,173,356.1,180.2z"/>
			<path class="st7" d="M345.2,180.2l-23.7,128.5h-17.1c0,0,7.9-2.7,9.1-20.8c0.6-9.1-0.6-22.1-5.4-40.7h1.4c5.4,0,9.8-4.4,9.8-9.8
				v-68c0-1.1-0.1-2.1-0.4-3h14.8C341,166.4,346.5,173,345.2,180.2z"/>
		</g>
		<path class="st8" d="M308.1,136.2L308.1,136.2c0,0-6.6-16.7-6.6-34.6c0-17.9-9.4-24.1-19.6-24.1h-21.6c-11.9,0-21.6,6.9-22.3,15.6
			c-0.6,7.3-1.5,15.4-2.7,20c-2.7,9.7-8.2,28.3-13.1,38.1c-4.8,9.8-1,18.2,10.8,18.4c0,0-1,17.8,30.9,13
			c30.2-4.6,50.6-11.3,47.4-38.4C310.9,141.4,309.8,138.7,308.1,136.2z"/>
		<path class="st8" d="M248.8,104.9c-2,0-4-0.3-5.5-1.3c-1.5-1-2.3-2.5-2.5-4.5c-0.8-9.1,6.6-14.8,6.9-15c0.2-0.2,0.5-0.1,0.7,0.1
			c0.2,0.2,0.1,0.5-0.1,0.7c-0.1,0.1-7.3,5.6-6.6,14.2c0.1,1.7,0.8,3,2.1,3.8c4,2.7,12.4-0.1,12.5-0.1c0.2-0.1,0.5,0.1,0.6,0.3
			c0.1,0.2-0.1,0.5-0.3,0.6C256.4,103.6,252.7,104.9,248.8,104.9z"/>
		<path class="st8" d="M280.2,101.9c-0.3,0-0.5-0.2-0.5-0.5c0-0.1-0.3-9-1.1-12c-0.1-0.2,0.1-0.5,0.3-0.6c0.3-0.1,0.5,0.1,0.6,0.3
			c0.8,3.1,1.1,11.8,1.1,12.2C280.6,101.6,280.4,101.9,280.2,101.9C280.2,101.9,280.2,101.9,280.2,101.9z"/>
		<path class="st9" d="M316.3,161.4c-38,20.1-66.3,12.3-76,8.3c1.2-1,2.5-1.9,3.8-2.7c5.4-3.2,12.9-7.8,17.4-10.7
			c3.5-2.3,4.8-6.2,5.1-9.7c0.3-4.1-0.6-7.6-0.6-7.6h-3.2c-9.2,0-16.7-7.5-16.7-16.7v-20.9h34.1l4.6,41c0.9,8.1,7.8,14.2,15.9,14.2
			h5.7C310.4,156.6,314,158.5,316.3,161.4z"/>
		<path class="st10" d="M279.1,271.8c6.5,3.4,17.3,18.2,34.3,16.1c0.6-9.1-0.6-22.1-5.4-40.7h1.4c5.4,0,9.8-4.4,9.8-9.8v-68
			c0-3-1.1-5.8-2.9-8c-38,20.1-66.3,12.3-76,8.4c-2.6,2.2-4.9,4.8-6.7,7.8L210.1,217c-1.5,2.4-4.1,3.9-6.9,3.9h-2.3V243h6.3
			c3.6,0,7-1.6,9.3-4.3l26.4-30.6c0,0,6.5,22.2-1.3,57.7l0,0C241.6,265.9,271.6,267.9,279.1,271.8z"/>
		<path class="st9" d="M211.5,415.9c0,0-1.7,2-4.6,4.5c2,1.1,4.3,2.9,5.9,5.7c0,0,5.3-5.5,12.7-5.9c-0.8-2.3-1.8-4.5-3-6.2l0.2-17.7
			h-13.9L211.5,415.9z"/>
		<path class="st4" d="M212.9,426.1c-1.7-2.8-3.9-4.6-5.9-5.7c-4,3.5-10.4,7.8-17.9,8.9c0,0-3.9-0.3-5.7,2.3c-0.6,0.9,0,2.1,1.1,2.3
			c5.1,0.9,20.6,2.9,41.7,0c1.3-0.2,2.3-1.4,2.1-2.7c-0.2-2.5-1.1-7-2.6-11.1C218.2,420.6,212.9,426.1,212.9,426.1z"/>
		<path class="st11" d="M194,292.5c-10.7,3-4.1,36-4.1,36l0,0c0.1,0.5,5,39.2,3.4,42.1c-1.6,3-4.1,9.6,3.4,14.6
			c0,0-3.4,12.5,8.7,11.1h3.4l0,0h13.9l0.8-87.6h21.6C231.8,302.7,202.2,290.2,194,292.5z"/>
		<path class="st12" d="M279.1,271.8c-7.5-3.9-37.6-5.9-37.6-5.9l0,0c0,0,0,0,0,0c0,0-35-7.7-43,0c-8,7.7-40.1,43.7-42.8,53.7
			c-1.8,6.5,0,10.7,0,10.7s-6.2,2.4-8,6.1c-3.9,7.9,3.8,14.1,3.9,14.1l0,0c0,0,4.7,1,10.9,8.6l27.3-30.7c0,0,0,0,0,0l0,0
			c0,0-6.6-33,4.1-36c8.2-2.3,37.8,10.2,51.1,16.2h59.3c0,0,7.9-2.7,9.1-20.8C296.4,290,285.6,275.1,279.1,271.8z"/>
		<path class="st9" d="M151.7,350.5L151.7,350.5L151.7,350.5l-10.5,18.9c0,0-2.2-0.5-5.4-1.5c1.2,2.5,2.4,5.6,1.8,7.8
			c0,0,4.7-0.6,9.6,3.1c0.6-1.3,1.2-2.8,1.8-4.5l13.6-15.3C156.3,351.5,151.7,350.5,151.7,350.5z"/>
		<path class="st4" d="M137.6,375.8c0.6-2.2-0.5-5.4-1.8-7.8c-6.5-1.9-17.2-5.3-23.3-9c-0.8-0.5-1.9-0.3-2.5,0.4
			c-0.3,0.3-0.4,0.8-0.4,1.2c0,0.4,0.1,0.8,0.4,1.2c3.6,4.4,16.3,19.4,27.3,25.3c2,1.1,4.6,0.6,5.9-1.3c1.1-1.5,2.4-3.7,3.8-6.9
			C142.2,375.2,137.6,375.8,137.6,375.8z"/>
		<path class="st13" d="M275.7,139c0,0-4.6,7.7-9.1,7.6c0.3-4.1-0.6-7.6-0.6-7.6H275.7z"/>
		<g>
			<path class="st14" d="M242.8,208.6c-0.2,0-0.4-0.1-0.4-0.3c-0.1-0.2-5.1-15.2,3.3-29.4c0.1-0.2,0.4-0.3,0.6-0.2
				c0.2,0.1,0.3,0.4,0.2,0.6c-8.2,13.8-3.3,28.4-3.3,28.6c0.1,0.2,0,0.5-0.3,0.6C242.9,208.6,242.9,208.6,242.8,208.6z"/>
			<path class="st14" d="M253.6,234c-0.2,0-0.4-0.2-0.5-0.4c0-0.3,0.1-0.5,0.4-0.5l48.7-6.8l-2.9-49.2c0-0.3,0.2-0.5,0.4-0.5
				c0.3,0,0.5,0.2,0.5,0.4l3,49.6c0,0.2-0.2,0.5-0.4,0.5L253.6,234C253.7,234,253.7,234,253.6,234z"/>
			<path class="st14" d="M253.6,247.5c-0.2,0-0.3-0.1-0.4-0.2l-1-1.6c-0.1-0.2-0.1-0.5,0.1-0.6c0.2-0.1,0.5-0.1,0.6,0.1l0.9,1.4
				l52.9-0.1h0c0.3,0,0.5,0.2,0.5,0.5c0,0.3-0.2,0.5-0.5,0.5L253.6,247.5L253.6,247.5z"/>
		</g>
		<path class="st15" d="M260.6,124.4c0,0-4.2-1.8-4.9-0.7c-0.7,1.1,2.1,2.4,5.7,2.4s6.4-2.2,5.7-3.5S260.6,124.4,260.6,124.4z"/>
		<path class="st13" d="M261.8,129.1c-1.4,0-2.4-0.5-2.5-0.5c-0.2-0.1-0.3-0.4-0.2-0.6c0.1-0.2,0.4-0.3,0.6-0.2c0,0,2,1,4.1,0
			c0.2-0.1,0.5,0,0.6,0.2c0.1,0.2,0,0.5-0.2,0.6C263.4,129,262.5,129.1,261.8,129.1z"/>
		<path class="st13" d="M259.9,120.6c-0.9,0-1.6-0.4-2-0.7c-0.1-0.1-0.1-0.2-0.1-0.3V108c0-2.3-2.2-2.9-2.2-2.9
			c-0.2-0.1-0.4-0.3-0.3-0.6c0.1-0.2,0.3-0.4,0.6-0.3c1,0.3,2.9,1.4,2.9,3.8v11.3c0.4,0.3,1.4,0.8,2.8-0.2c0.2-0.1,0.5-0.1,0.6,0.1
			c0.1,0.2,0.1,0.5-0.1,0.6C261.3,120.4,260.6,120.6,259.9,120.6z"/>
		<g>
			<path class="st3" d="M266.7,109.7c-1.1,0-2,0.9-2,2c0,1.1,0.9,2,2,2c1.1,0,2-0.9,2-2C268.7,110.5,267.8,109.7,266.7,109.7z"/>
			<path class="st3" d="M251.7,109.7c-1.1,0-2,0.9-2,2c0,1.1,0.9,2,2,2c1.1,0,2-0.9,2-2C253.6,110.5,252.8,109.7,251.7,109.7z"/>
		</g>
		<circle class="st16" cx="272.5" cy="116.3" r="3.2"/>
		<path class="st16" d="M251.7,116.3c0,1.8-1.4,3.2-3.2,3.2c-1,0-1.8-0.4-2.4-1.1v-4.2c0.6-0.7,1.4-1.1,2.4-1.1
			C250.2,113.1,251.7,114.6,251.7,116.3z"/>
		<path class="st3" d="M271.6,105.6c0,0-0.1,0-0.1,0c-5.6-1.6-7.7-0.1-7.8-0.1c-0.2,0.2-0.5,0.1-0.7-0.1c-0.2-0.2-0.1-0.5,0.1-0.6
			c0.1-0.1,2.5-1.9,8.6-0.1c0.2,0.1,0.4,0.3,0.3,0.6C272,105.4,271.8,105.6,271.6,105.6z"/>
		<path class="st3" d="M247.7,105.6c-0.2,0-0.3-0.1-0.4-0.3c-0.1-0.2,0-0.5,0.2-0.6c3.1-1.6,6.6-0.5,6.8-0.4
			c0.2,0.1,0.4,0.3,0.3,0.6c-0.1,0.2-0.3,0.4-0.6,0.3c0,0-3.3-1-6.1,0.4C247.8,105.5,247.8,105.6,247.7,105.6z"/>
		<path class="st15" d="M291.2,85.7L276,77c-1.5-2.5-4.2-4.2-7.3-4.2c-2.9,0-5.4,1.4-6.9,3.6c-4-1.8-6.4-0.7-7.3-0.1
			c-1.6-2.1-4-3.4-6.8-3.4c-4.7,0-8.6,3.8-8.6,8.6c0,4.7,3.8,8.6,8.6,8.6c4.7,0,8.6-3.8,8.6-8.6c0-1.6-0.4-3.1-1.2-4.4
			c0.7-0.5,2.8-1.4,6.3,0.1c-0.7,1.2-1.1,2.7-1.1,4.2c0,4.7,3.8,8.6,8.6,8.6c4.7,0,8.6-3.8,8.6-8.6c0-1-0.2-2-0.5-2.9l14.1,8
			c0.1,0,0.2,0.1,0.2,0.1c0.2,0,0.3-0.1,0.4-0.2C291.5,86.1,291.5,85.8,291.2,85.7z M247.6,89c-4.2,0-7.6-3.4-7.6-7.6
			c0-4.2,3.4-7.6,7.6-7.6c4.2,0,7.6,3.4,7.6,7.6C255.2,85.6,251.8,89,247.6,89z M268.7,89c-4.2,0-7.6-3.4-7.6-7.6
			c0-4.2,3.4-7.6,7.6-7.6c4.2,0,7.6,3.4,7.6,7.6C276.3,85.6,272.9,89,268.7,89z"/>
		<path class="st17" d="M354.6,233.3C354.6,233.3,354.6,233.3,354.6,233.3l0-3.3c0-0.4-0.4-0.8-0.8-0.8h-15.9
			c-0.4,0-0.8,0.4-0.8,0.8v19.5c0,0.4,0.4,0.8,0.8,0.8h15.9c0.4,0,0.8-0.4,0.8-0.8v-4.1c0,0,0,0,0,0c2.8,0,5.1-2.7,5.1-6.1
			C359.7,236,357.4,233.3,354.6,233.3z M354.6,243.5C354.6,243.5,354.6,243.5,354.6,243.5l0-8.4c0,0,0,0,0,0c1.8,0,3.2,1.9,3.2,4.2
			C357.8,241.7,356.4,243.5,354.6,243.5z"/>
		<g>
			<polygon class="st3" points="342.8,262.4 336.8,262.4 280.1,429.8 286,429.8 339.8,271 393.6,429.8 399.5,429.8 			"/>
			<polygon class="st3" points="102.1,262.4 45.3,429.8 51.2,429.8 105.1,271 158.9,429.8 164.8,429.8 108.1,262.4 			"/>
		</g>
		<g>
			<g>
				<polygon class="st18" points="122.5,205.8 117.1,227.7 112.2,247.8 83.4,247.8 94.8,214.9 97.9,205.8 				"/>
				<polygon class="st15" points="124.3,205.8 118.8,228.6 114.1,247.8 85.3,247.8 96.3,215.8 99.8,205.8 				"/>
				<path class="st19" d="M120.9,245.4H74.2c-1,0-1.7,0.8-1.7,1.7v1.4c0,1,0.8,1.7,1.7,1.7h46.7c1,0,1.7-0.8,1.7-1.7v-1.4
					C122.6,246.2,121.8,245.4,120.9,245.4z"/>
				<polygon class="st20" points="124.3,205.8 118.8,228.6 117.1,227.7 96.3,215.8 94.8,214.9 97.9,205.8 				"/>
			</g>
			<g>
				<path class="st19" d="M171.5,212.2H66.8c-1.5,0-3-1.2-3.3-2.7l-12.8-67.3c-0.1-0.7,0-1.4,0.4-1.9l0.4-0.4
					c0.4-0.5,1.1-0.8,1.8-0.8H158c1.5,0,3,1.2,3.3,2.7l12.8,67.3c0.1,0.7,0,1.4-0.4,1.9l-0.4,0.4
					C172.9,211.9,172.3,212.2,171.5,212.2z"/>
				<path class="st15" d="M171.6,210.2H68.5c-1.5,0-3-1.2-3.3-2.7l-12.5-65.7c-0.3-1.5,0.7-2.7,2.2-2.7H158c1.5,0,3,1.2,3.3,2.7
					l12.5,65.7C174.1,208.9,173.1,210.2,171.6,210.2z"/>
				<path class="st21" d="M170.1,207.7H69c-0.5,0-1.1-0.4-1.2-1l-12.3-64.4c-0.1-0.5,0.3-1,0.8-1h101.1c0.5,0,1.1,0.4,1.2,1
					l12.3,64.4C171,207.3,170.7,207.7,170.1,207.7z"/>
				<g>
					<g>
						<path class="st22" d="M60.1,148.2h1.5c0.4,0,0.7-0.3,0.6-0.8c-0.1-0.4-0.5-0.8-0.9-0.8h-1.5c-0.4,0-0.7,0.3-0.6,0.8
							C59.3,147.8,59.7,148.2,60.1,148.2z"/>
						<path class="st23" d="M75.5,148.2h15.4c0.4,0,0.7-0.3,0.6-0.8c-0.1-0.4-0.5-0.8-0.9-0.8H75.2c-0.4,0-0.7,0.3-0.6,0.8
							C74.7,147.8,75.1,148.2,75.5,148.2z"/>
						<path class="st24" d="M94,148.2h1.5c0.4,0,0.7-0.3,0.6-0.8c-0.1-0.4-0.5-0.8-0.9-0.8h-1.5c-0.4,0-0.7,0.3-0.6,0.8
							C93.2,147.8,93.6,148.2,94,148.2z"/>
						<path class="st24" d="M109.4,148.2h5.1c0.4,0,0.7-0.3,0.6-0.8c-0.1-0.4-0.5-0.8-0.9-0.8h-5.1c-0.4,0-0.7,0.3-0.6,0.8
							C108.6,147.8,109,148.2,109.4,148.2z"/>
						<path class="st25" d="M98.6,148.2h7.7c0.4,0,0.7-0.3,0.6-0.8c-0.1-0.4-0.5-0.8-0.9-0.8h-7.7c-0.4,0-0.7,0.3-0.6,0.8
							C97.8,147.8,98.2,148.2,98.6,148.2z"/>
						<path class="st25" d="M64.8,148.2h7.7c0.4,0,0.7-0.3,0.6-0.8c-0.1-0.4-0.5-0.8-0.9-0.8h-7.7c-0.4,0-0.7,0.3-0.6,0.8
							C63.9,147.8,64.3,148.2,64.8,148.2z"/>
						<path class="st25" d="M84,152c-0.1-0.4-0.5-0.8-0.9-0.8H66.1c-0.4,0-0.7,0.3-0.6,0.8c0.1,0.4,0.5,0.8,0.9,0.8h16.9
							C83.8,152.8,84,152.4,84,152z"/>
						<path class="st26" d="M63,151.2h-2.3c-0.4,0-0.7,0.3-0.6,0.8c0.1,0.4,0.5,0.8,0.9,0.8h2.3c0.4,0,0.7-0.3,0.6-0.8
							C63.9,151.6,63.5,151.2,63,151.2z"/>
						<path class="st25" d="M101.5,151.2H86.1c-0.4,0-0.7,0.3-0.6,0.8c0.1,0.4,0.5,0.8,0.9,0.8h15.4c0.4,0,0.7-0.3,0.6-0.8
							C102.4,151.6,102,151.2,101.5,151.2z"/>
						<path class="st24" d="M107.2,152.8c0.4,0,0.7-0.3,0.6-0.8c-0.1-0.4-0.5-0.8-0.9-0.8h-2.3c-0.4,0-0.7,0.3-0.6,0.8
							c0.1,0.4,0.5,0.8,0.9,0.8H107.2z"/>
						<path class="st25" d="M115.1,151.2H110c-0.4,0-0.7,0.3-0.6,0.8c0.1,0.4,0.5,0.8,0.9,0.8h5.1c0.4,0,0.7-0.3,0.6-0.8
							C115.9,151.6,115.5,151.2,115.1,151.2z"/>
						<path class="st24" d="M97.3,157.4c0.4,0,0.7-0.3,0.6-0.8c-0.1-0.4-0.5-0.8-0.9-0.8h-1.5c-0.4,0-0.7,0.3-0.6,0.8
							c0.1,0.4,0.5,0.8,0.9,0.8H97.3z"/>
						<path class="st27" d="M61.9,157.4h1.5c0.4,0,0.7-0.3,0.6-0.8c-0.1-0.4-0.5-0.8-0.9-0.8h-1.5c-0.4,0-0.7,0.3-0.6,0.8
							C61.1,157,61.5,157.4,61.9,157.4z"/>
						<path class="st22" d="M99.5,156.6c0.1,0.4,0.5,0.8,0.9,0.8h7.7c0.4,0,0.7-0.3,0.6-0.8c-0.1-0.4-0.5-0.8-0.9-0.8h-7.7
							C99.7,155.8,99.4,156.2,99.5,156.6z"/>
						<path class="st22" d="M66.5,157.4h7.7c0.4,0,0.7-0.3,0.6-0.8c-0.1-0.4-0.5-0.8-0.9-0.8h-7.7c-0.4,0-0.7,0.3-0.6,0.8
							C65.7,157,66.1,157.4,66.5,157.4z"/>
						<path class="st22" d="M115.9,155.8h-5.1c-0.4,0-0.7,0.3-0.6,0.8c0.1,0.4,0.5,0.8,0.9,0.8h5.1c0.4,0,0.7-0.3,0.6-0.8
							C116.8,156.2,116.4,155.8,115.9,155.8z"/>
						<path class="st24" d="M77.3,157.4h15.4c0.4,0,0.7-0.3,0.6-0.8c-0.1-0.4-0.5-0.8-0.9-0.8H77c-0.4,0-0.7,0.3-0.6,0.8
							C76.5,157,76.9,157.4,77.3,157.4z"/>
						<path class="st25" d="M116.8,160.4h-5.1c-0.4,0-0.7,0.3-0.6,0.8c0.1,0.4,0.5,0.8,0.9,0.8h5.1c0.4,0,0.7-0.3,0.6-0.8
							C117.6,160.8,117.2,160.4,116.8,160.4z"/>
						<path class="st23" d="M108.7,160.4h-2.3c-0.4,0-0.7,0.3-0.6,0.8c0.1,0.4,0.5,0.8,0.9,0.8h2.3c0.4,0,0.7-0.3,0.6-0.8
							C109.5,160.8,109.1,160.4,108.7,160.4z"/>
						<path class="st25" d="M104.2,161.2c-0.1-0.4-0.5-0.8-0.9-0.8H87.9c-0.4,0-0.7,0.3-0.6,0.8c0.1,0.4,0.5,0.8,0.9,0.8h15.4
							C104,162,104.3,161.6,104.2,161.2z"/>
						<path class="st25" d="M67.2,161.2c0.1,0.4,0.5,0.8,0.9,0.8h16.9c0.4,0,0.7-0.3,0.6-0.8c-0.1-0.4-0.5-0.8-0.9-0.8H67.9
							C67.4,160.4,67.2,160.8,67.2,161.2z"/>
						<path class="st22" d="M64.8,160.4h-2.3c-0.4,0-0.7,0.3-0.6,0.8c0.1,0.4,0.5,0.8,0.9,0.8h2.3c0.4,0,0.7-0.3,0.6-0.8
							C65.6,160.8,65.2,160.4,64.8,160.4z"/>
						<path class="st22" d="M117.7,165h-2c-0.4,0-0.7,0.3-0.6,0.8c0.1,0.4,0.5,0.8,0.9,0.8h2c0.4,0,0.7-0.3,0.6-0.8
							C118.5,165.4,118.1,165,117.7,165z"/>
						<path class="st22" d="M101.2,165.8c-0.1-0.4-0.5-0.8-0.9-0.8h-1.5c-0.4,0-0.7,0.3-0.6,0.8c0.1,0.4,0.5,0.8,0.9,0.8h1.5
							C101,166.6,101.3,166.2,101.2,165.8z"/>
						<path class="st25" d="M95.7,165H80.3c-0.4,0-0.7,0.3-0.6,0.8c0.1,0.4,0.5,0.8,0.9,0.8H96c0.4,0,0.7-0.3,0.6-0.8
							C96.5,165.4,96.1,165,95.7,165z"/>
						<path class="st25" d="M113.5,165.8c-0.1-0.4-0.5-0.8-0.9-0.8h-9.2c-0.4,0-0.7,0.3-0.6,0.8c0.1,0.4,0.5,0.8,0.9,0.8h9.2
							C113.3,166.6,113.6,166.2,113.5,165.8z"/>
						<path class="st24" d="M68.3,166.6h9.2c0.4,0,0.7-0.3,0.6-0.8c-0.1-0.4-0.5-0.8-0.9-0.8H68c-0.4,0-0.7,0.3-0.6,0.8
							C67.4,166.2,67.8,166.6,68.3,166.6z"/>
						<path class="st26" d="M63.6,166.6h1.5c0.4,0,0.7-0.3,0.6-0.8c-0.1-0.4-0.5-0.8-0.9-0.8h-1.5c-0.4,0-0.7,0.3-0.6,0.8
							C62.8,166.2,63.2,166.6,63.6,166.6z"/>
						<path class="st27" d="M64.5,171.2h1.5c0.4,0,0.7-0.3,0.6-0.8c-0.1-0.4-0.5-0.8-0.9-0.8h-1.5c-0.4,0-0.7,0.3-0.6,0.8
							C63.7,170.8,64.1,171.2,64.5,171.2z"/>
						<path class="st23" d="M69.1,171.2h7.7c0.4,0,0.7-0.3,0.6-0.8c-0.1-0.4-0.5-0.8-0.9-0.8h-7.7c-0.4,0-0.7,0.3-0.6,0.8
							C68.3,170.8,68.7,171.2,69.1,171.2z"/>
						<path class="st25" d="M110.4,169.6h-7.7c-0.4,0-0.7,0.3-0.6,0.8c0.1,0.4,0.5,0.8,0.9,0.8h7.7c0.4,0,0.7-0.3,0.6-0.8
							C111.3,170,110.9,169.6,110.4,169.6z"/>
						<path class="st25" d="M118.6,169.6h-5.1c-0.4,0-0.7,0.3-0.6,0.8c0.1,0.4,0.5,0.8,0.9,0.8h5.1c0.4,0,0.7-0.3,0.6-0.8
							C119.4,170,119,169.6,118.6,169.6z"/>
						<path class="st22" d="M98.4,171.2h1.5c0.4,0,0.7-0.3,0.6-0.8c-0.1-0.4-0.5-0.8-0.9-0.8h-1.5c-0.4,0-0.7,0.3-0.6,0.8
							C97.6,170.8,98,171.2,98.4,171.2z"/>
						<path class="st25" d="M79.9,171.2h15.4c0.4,0,0.7-0.3,0.6-0.8c-0.1-0.4-0.5-0.8-0.9-0.8H79.6c-0.4,0-0.7,0.3-0.6,0.8
							C79.1,170.8,79.5,171.2,79.9,171.2z"/>
						<path class="st25" d="M69.9,175c0.1,0.4,0.5,0.8,0.9,0.8h16.9c0.4,0,0.7-0.3,0.6-0.8c-0.1-0.4-0.5-0.8-0.9-0.8H70.5
							C70.1,174.2,69.8,174.6,69.9,175z"/>
						<path class="st26" d="M67.4,174.2h-2.3c-0.4,0-0.7,0.3-0.6,0.8c0.1,0.4,0.5,0.8,0.9,0.8h2.3c0.4,0,0.7-0.3,0.6-0.8
							C68.2,174.6,67.8,174.2,67.4,174.2z"/>
						<path class="st25" d="M106.8,175c-0.1-0.4-0.5-0.8-0.9-0.8H90.5c-0.4,0-0.7,0.3-0.6,0.8c0.1,0.4,0.5,0.8,0.9,0.8h15.4
							C106.6,175.8,106.9,175.4,106.8,175z"/>
						<path class="st23" d="M111.6,175.8c0.4,0,0.7-0.3,0.6-0.8c-0.1-0.4-0.5-0.8-0.9-0.8H109c-0.4,0-0.7,0.3-0.6,0.8
							c0.1,0.4,0.5,0.8,0.9,0.8H111.6z"/>
						<path class="st25" d="M119.4,174.2h-5.1c-0.4,0-0.7,0.3-0.6,0.8c0.1,0.4,0.5,0.8,0.9,0.8h5.1c0.4,0,0.7-0.3,0.6-0.8
							C120.3,174.6,119.9,174.2,119.4,174.2z"/>
						<path class="st24" d="M102.3,179.6c-0.1-0.4-0.5-0.8-0.9-0.8h-1.5c-0.4,0-0.7,0.3-0.6,0.8c0.1,0.4,0.5,0.8,0.9,0.8h1.5
							C102.1,180.4,102.4,180,102.3,179.6z"/>
						<path class="st23" d="M120.3,178.8h-5.1c-0.4,0-0.7,0.3-0.6,0.8c0.1,0.4,0.5,0.8,0.9,0.8h5.1c0.4,0,0.7-0.3,0.6-0.8
							C121.1,179.2,120.7,178.8,120.3,178.8z"/>
						<path class="st22" d="M81.7,180.4h15.4c0.4,0,0.7-0.3,0.6-0.8c-0.1-0.4-0.5-0.8-0.9-0.8H81.4c-0.4,0-0.7,0.3-0.6,0.8
							C80.8,180,81.2,180.4,81.7,180.4z"/>
						<path class="st25" d="M70.9,180.4h7.7c0.4,0,0.7-0.3,0.6-0.8c-0.1-0.4-0.5-0.8-0.9-0.8h-7.7c-0.4,0-0.7,0.3-0.6,0.8
							C70.1,180,70.5,180.4,70.9,180.4z"/>
						<path class="st27" d="M66.3,180.4h1.5c0.4,0,0.7-0.3,0.6-0.8c-0.1-0.4-0.5-0.8-0.9-0.8H66c-0.4,0-0.7,0.3-0.6,0.8
							C65.4,180,65.8,180.4,66.3,180.4z"/>
						<path class="st24" d="M104.8,180.4h7.7c0.4,0,0.7-0.3,0.6-0.8c-0.1-0.4-0.5-0.8-0.9-0.8h-7.7c-0.4,0-0.7,0.3-0.6,0.8
							C103.9,180,104.3,180.4,104.8,180.4z"/>
						<path class="st24" d="M81,185c0.4,0,0.7-0.3,0.6-0.8c-0.1-0.4-0.5-0.8-0.9-0.8h-9.2c-0.4,0-0.7,0.3-0.6,0.8
							c0.1,0.4,0.5,0.8,0.9,0.8H81z"/>
						<path class="st24" d="M121.2,183.4h-2c-0.4,0-0.7,0.3-0.6,0.8c0.1,0.4,0.5,0.8,0.9,0.8h2c0.4,0,0.7-0.3,0.6-0.8
							C122,183.8,121.6,183.4,121.2,183.4z"/>
						<path class="st22" d="M102.6,185h1.5c0.4,0,0.7-0.3,0.6-0.8c-0.1-0.4-0.5-0.8-0.9-0.8h-1.5c-0.4,0-0.7,0.3-0.6,0.8
							C101.7,184.6,102.1,185,102.6,185z"/>
						<path class="st25" d="M84.1,185h15.4c0.4,0,0.7-0.3,0.6-0.8c-0.1-0.4-0.5-0.8-0.9-0.8H83.8c-0.4,0-0.7,0.3-0.6,0.8
							C83.3,184.6,83.7,185,84.1,185z"/>
						<path class="st26" d="M67.2,185h1.5c0.4,0,0.7-0.3,0.6-0.8c-0.1-0.4-0.5-0.8-0.9-0.8h-1.5c-0.4,0-0.7,0.3-0.6,0.8
							C66.3,184.6,66.7,185,67.2,185z"/>
						<path class="st25" d="M107.2,185h9.2c0.4,0,0.7-0.3,0.6-0.8c-0.1-0.4-0.5-0.8-0.9-0.8h-9.2c-0.4,0-0.7,0.3-0.6,0.8
							C106.4,184.6,106.8,185,107.2,185z"/>
						<path class="st24" d="M122.1,188.1H117c-0.4,0-0.7,0.3-0.6,0.8s0.5,0.8,0.9,0.8h5.1c0.4,0,0.7-0.3,0.6-0.8
							C122.9,188.4,122.5,188.1,122.1,188.1z"/>
						<path class="st22" d="M113.9,188.1h-2.3c-0.4,0-0.7,0.3-0.6,0.8c0.1,0.4,0.5,0.8,0.9,0.8h2.3c0.4,0,0.7-0.3,0.6-0.8
							C114.8,188.4,114.4,188.1,113.9,188.1z"/>
						<path class="st23" d="M90.1,188.1H73.1c-0.4,0-0.7,0.3-0.6,0.8c0.1,0.4,0.5,0.8,0.9,0.8h16.9c0.4,0,0.7-0.3,0.6-0.8
							C90.9,188.4,90.5,188.1,90.1,188.1z"/>
						<path class="st25" d="M108.5,188.1H93.1c-0.4,0-0.7,0.3-0.6,0.8c0.1,0.4,0.5,0.8,0.9,0.8h15.4c0.4,0,0.7-0.3,0.6-0.8
							C109.4,188.4,109,188.1,108.5,188.1z"/>
						<path class="st23" d="M128.2,148.2h15.4c0.4,0,0.7-0.3,0.6-0.8c-0.1-0.4-0.5-0.8-0.9-0.8h-15.4c-0.4,0-0.7,0.3-0.6,0.8
							C127.3,147.8,127.8,148.2,128.2,148.2z"/>
						<path class="st24" d="M146.7,148.2h1.5c0.4,0,0.7-0.3,0.6-0.8c-0.1-0.4-0.5-0.8-0.9-0.8h-1.5c-0.4,0-0.7,0.3-0.6,0.8
							C145.8,147.8,146.2,148.2,146.7,148.2z"/>
						<path class="st25" d="M151.3,148.2h4.5c0.4,0,0.7-0.3,0.6-0.8c-0.1-0.4-0.5-0.8-0.9-0.8H151c-0.4,0-0.7,0.3-0.6,0.8
							C150.4,147.8,150.9,148.2,151.3,148.2z"/>
						<path class="st25" d="M117.4,148.2h7.7c0.4,0,0.7-0.3,0.6-0.8c-0.1-0.4-0.5-0.8-0.9-0.8h-7.7c-0.4,0-0.7,0.3-0.6,0.8
							C116.6,147.8,117,148.2,117.4,148.2z"/>
						<path class="st25" d="M135.7,152c-0.1-0.4-0.5-0.8-0.9-0.8h-16.9c-0.4,0-0.7,0.3-0.6,0.8c0.1,0.4,0.5,0.8,0.9,0.8h16.9
							C135.5,152.8,135.8,152.4,135.7,152z"/>
						<path class="st25" d="M156.4,151.2h-18.5c-0.4,0-0.7,0.3-0.6,0.8c0.1,0.4,0.5,0.8,0.9,0.8h18.5c0.4,0,0.7-0.3,0.6-0.8
							C157.2,151.6,156.8,151.2,156.4,151.2z"/>
						<path class="st24" d="M150,157.4c0.4,0,0.7-0.3,0.6-0.8c-0.1-0.4-0.5-0.8-0.9-0.8h-1.5c-0.4,0-0.7,0.3-0.6,0.8
							c0.1,0.4,0.5,0.8,0.9,0.8H150z"/>
						<path class="st22" d="M152.1,156.6c0.1,0.4,0.5,0.8,0.9,0.8h4.1c0.4,0,0.7-0.3,0.6-0.8c-0.1-0.4-0.5-0.8-0.9-0.8h-4.1
							C152.3,155.8,152,156.2,152.1,156.6z"/>
						<path class="st22" d="M119.2,157.4h7.7c0.4,0,0.7-0.3,0.6-0.8c-0.1-0.4-0.5-0.8-0.9-0.8h-7.7c-0.4,0-0.7,0.3-0.6,0.8
							C118.3,157,118.7,157.4,119.2,157.4z"/>
						<path class="st24" d="M129.9,157.4h15.4c0.4,0,0.7-0.3,0.6-0.8c-0.1-0.4-0.5-0.8-0.9-0.8h-15.4c-0.4,0-0.7,0.3-0.6,0.8
							C129.1,157,129.5,157.4,129.9,157.4z"/>
						<path class="st25" d="M158.8,161.2c-0.1-0.4-0.5-0.8-0.9-0.8h-17.3c-0.4,0-0.7,0.3-0.6,0.8c0.1,0.4,0.5,0.8,0.9,0.8h17.3
							C158.6,162,158.9,161.6,158.8,161.2z"/>
						<path class="st25" d="M119.9,161.2c0.1,0.4,0.5,0.8,0.9,0.8h16.9c0.4,0,0.7-0.3,0.6-0.8c-0.1-0.4-0.5-0.8-0.9-0.8h-16.9
							C120.1,160.4,119.8,160.8,119.9,161.2z"/>
						<path class="st22" d="M153.9,165.8c-0.1-0.4-0.5-0.8-0.9-0.8h-1.5c-0.4,0-0.7,0.3-0.6,0.8c0.1,0.4,0.5,0.8,0.9,0.8h1.5
							C153.7,166.6,154,166.2,153.9,165.8z"/>
						<path class="st25" d="M148.3,165h-15.4c-0.4,0-0.7,0.3-0.6,0.8c0.1,0.4,0.5,0.8,0.9,0.8h15.4c0.4,0,0.7-0.3,0.6-0.8
							C149.2,165.4,148.8,165,148.3,165z"/>
						<path class="st25" d="M160,165.8c-0.1-0.4-0.5-0.8-0.9-0.8H156c-0.4,0-0.7,0.3-0.6,0.8c0.1,0.4,0.5,0.8,0.9,0.8h3.1
							C159.8,166.6,160.1,166.2,160,165.8z"/>
						<path class="st24" d="M120.9,166.6h9.2c0.4,0,0.7-0.3,0.6-0.8c-0.1-0.4-0.5-0.8-0.9-0.8h-9.2c-0.4,0-0.7,0.3-0.6,0.8
							C120.1,166.2,120.5,166.6,120.9,166.6z"/>
						<path class="st23" d="M121.8,171.2h7.7c0.4,0,0.7-0.3,0.6-0.8c-0.1-0.4-0.5-0.8-0.9-0.8h-7.7c-0.4,0-0.7,0.3-0.6,0.8
							C120.9,170.8,121.4,171.2,121.8,171.2z"/>
						<path class="st25" d="M159.4,169.6h-4c-0.4,0-0.7,0.3-0.6,0.8c0.1,0.4,0.5,0.8,0.9,0.8h4c0.4,0,0.7-0.3,0.6-0.8
							C160.2,170,159.8,169.6,159.4,169.6z"/>
						<path class="st22" d="M151,171.2h1.5c0.4,0,0.7-0.3,0.6-0.8c-0.1-0.4-0.5-0.8-0.9-0.8h-1.5c-0.4,0-0.7,0.3-0.6,0.8
							C150.2,170.8,150.6,171.2,151,171.2z"/>
						<path class="st25" d="M132.6,171.2H148c0.4,0,0.7-0.3,0.6-0.8c-0.1-0.4-0.5-0.8-0.9-0.8h-15.4c-0.4,0-0.7,0.3-0.6,0.8
							C131.7,170.8,132.1,171.2,132.6,171.2z"/>
						<path class="st25" d="M122.5,175c0.1,0.4,0.5,0.8,0.9,0.8h16.9c0.4,0,0.7-0.3,0.6-0.8c-0.1-0.4-0.5-0.8-0.9-0.8h-16.9
							C122.7,174.2,122.4,174.6,122.5,175z"/>
						<path class="st25" d="M161.8,175c-0.1-0.4-0.5-0.8-0.9-0.8h-17.7c-0.4,0-0.7,0.3-0.6,0.8c0.1,0.4,0.5,0.8,0.9,0.8h17.7
							C161.6,175.8,161.9,175.4,161.8,175z"/>
						<path class="st24" d="M155,179.6c-0.1-0.4-0.5-0.8-0.9-0.8h-1.5c-0.4,0-0.7,0.3-0.6,0.8c0.1,0.4,0.5,0.8,0.9,0.8h1.5
							C154.8,180.4,155,180,155,179.6z"/>
						<path class="st22" d="M134.3,180.4h15.4c0.4,0,0.7-0.3,0.6-0.8c-0.1-0.4-0.5-0.8-0.9-0.8H134c-0.4,0-0.7,0.3-0.6,0.8
							C133.5,180,133.9,180.4,134.3,180.4z"/>
						<path class="st25" d="M123.5,180.4h7.7c0.4,0,0.7-0.3,0.6-0.8c-0.1-0.4-0.5-0.8-0.9-0.8h-7.7c-0.4,0-0.7,0.3-0.6,0.8
							C122.7,180,123.1,180.4,123.5,180.4z"/>
						<path class="st24" d="M157.4,180.4h4.6c0.4,0,0.7-0.3,0.6-0.8c-0.1-0.4-0.5-0.8-0.9-0.8h-4.6c-0.4,0-0.7,0.3-0.6,0.8
							C156.6,180,157,180.4,157.4,180.4z"/>
						<path class="st24" d="M133.7,185c0.4,0,0.7-0.3,0.6-0.8c-0.1-0.4-0.5-0.8-0.9-0.8h-9.2c-0.4,0-0.7,0.3-0.6,0.8
							c0.1,0.4,0.5,0.8,0.9,0.8H133.7z"/>
						<path class="st22" d="M155.2,185h1.5c0.4,0,0.7-0.3,0.6-0.8c-0.1-0.4-0.5-0.8-0.9-0.8h-1.5c-0.4,0-0.7,0.3-0.6,0.8
							C154.4,184.6,154.8,185,155.2,185z"/>
						<path class="st25" d="M136.7,185h15.4c0.4,0,0.7-0.3,0.6-0.8c-0.1-0.4-0.5-0.8-0.9-0.8h-15.4c-0.4,0-0.7,0.3-0.6,0.8
							C135.9,184.6,136.3,185,136.7,185z"/>
						<path class="st25" d="M159.8,185h3.4c0.4,0,0.7-0.3,0.6-0.8c-0.1-0.4-0.5-0.8-0.9-0.8h-3.4c-0.4,0-0.7,0.3-0.6,0.8
							C159,184.6,159.4,185,159.8,185z"/>
						<path class="st22" d="M163.9,188.1h-0.5c-0.4,0-0.7,0.3-0.6,0.8s0.5,0.8,0.9,0.8h0.5c0.4,0,0.7-0.3,0.6-0.8
							C164.7,188.4,164.3,188.1,163.9,188.1z"/>
						<path class="st23" d="M142.7,188.1h-16.9c-0.4,0-0.7,0.3-0.6,0.8c0.1,0.4,0.5,0.8,0.9,0.8H143c0.4,0,0.7-0.3,0.6-0.8
							C143.5,188.4,143.1,188.1,142.7,188.1z"/>
						<path class="st25" d="M161.2,188.1h-15.4c-0.4,0-0.7,0.3-0.6,0.8c0.1,0.4,0.5,0.8,0.9,0.8h15.4c0.4,0,0.7-0.3,0.6-0.8
							C162,188.4,161.6,188.1,161.2,188.1z"/>
						<path class="st22" d="M70,188.1h-2.3c-0.4,0-0.7,0.3-0.6,0.8c0.1,0.4,0.5,0.8,0.9,0.8h2.3c0.4,0,0.7-0.3,0.6-0.8
							C70.9,188.4,70.5,188.1,70,188.1z"/>
					</g>
					<g>
						<path class="st22" d="M68.7,193.3h1.5c0.4,0,0.7-0.3,0.6-0.8c-0.1-0.4-0.5-0.8-0.9-0.8h-1.5c-0.4,0-0.7,0.3-0.6,0.8
							C67.9,193,68.3,193.3,68.7,193.3z"/>
						<path class="st23" d="M84.1,193.3h15.4c0.4,0,0.7-0.3,0.6-0.8c-0.1-0.4-0.5-0.8-0.9-0.8H83.8c-0.4,0-0.7,0.3-0.6,0.8
							C83.3,193,83.7,193.3,84.1,193.3z"/>
						<path class="st24" d="M102.6,193.3h1.5c0.4,0,0.7-0.3,0.6-0.8c-0.1-0.4-0.5-0.8-0.9-0.8h-1.5c-0.4,0-0.7,0.3-0.6,0.8
							C101.8,193,102.2,193.3,102.6,193.3z"/>
						<path class="st24" d="M118,193.3h5.1c0.4,0,0.7-0.3,0.6-0.8c-0.1-0.4-0.5-0.8-0.9-0.8h-5.1c-0.4,0-0.7,0.3-0.6,0.8
							C117.2,193,117.6,193.3,118,193.3z"/>
						<path class="st25" d="M107.2,193.3h7.7c0.4,0,0.7-0.3,0.6-0.8c-0.1-0.4-0.5-0.8-0.9-0.8h-7.7c-0.4,0-0.7,0.3-0.6,0.8
							C106.4,193,106.8,193.3,107.2,193.3z"/>
						<path class="st25" d="M73.4,193.3h7.7c0.4,0,0.7-0.3,0.6-0.8c-0.1-0.4-0.5-0.8-0.9-0.8h-7.7c-0.4,0-0.7,0.3-0.6,0.8
							C72.5,193,72.9,193.3,73.4,193.3z"/>
						<path class="st25" d="M92.6,197.2c-0.1-0.4-0.5-0.8-0.9-0.8H74.7c-0.4,0-0.7,0.3-0.6,0.8c0.1,0.4,0.5,0.8,0.9,0.8h16.9
							C92.4,197.9,92.7,197.6,92.6,197.2z"/>
						<path class="st26" d="M71.6,196.4h-2.3c-0.4,0-0.7,0.3-0.6,0.8c0.1,0.4,0.5,0.8,0.9,0.8h2.3c0.4,0,0.7-0.3,0.6-0.8
							C72.5,196.7,72.1,196.4,71.6,196.4z"/>
						<path class="st25" d="M110.1,196.4H94.7c-0.4,0-0.7,0.3-0.6,0.8c0.1,0.4,0.5,0.8,0.9,0.8h15.4c0.4,0,0.7-0.3,0.6-0.8
							C111,196.7,110.6,196.4,110.1,196.4z"/>
						<path class="st24" d="M115.8,197.9c0.4,0,0.7-0.3,0.6-0.8c-0.1-0.4-0.5-0.8-0.9-0.8h-2.3c-0.4,0-0.7,0.3-0.6,0.8
							c0.1,0.4,0.5,0.8,0.9,0.8H115.8z"/>
						<path class="st25" d="M123.7,196.4h-5.1c-0.4,0-0.7,0.3-0.6,0.8c0.1,0.4,0.5,0.8,0.9,0.8h5.1c0.4,0,0.7-0.3,0.6-0.8
							C124.5,196.7,124.1,196.4,123.7,196.4z"/>
						<path class="st24" d="M105.9,202.5c0.4,0,0.7-0.3,0.6-0.8c-0.1-0.4-0.5-0.8-0.9-0.8h-1.5c-0.4,0-0.7,0.3-0.6,0.8
							c0.1,0.4,0.5,0.8,0.9,0.8H105.9z"/>
						<path class="st27" d="M70.5,202.5H72c0.4,0,0.7-0.3,0.6-0.8c-0.1-0.4-0.5-0.8-0.9-0.8h-1.5c-0.4,0-0.7,0.3-0.6,0.8
							C69.7,202.2,70.1,202.5,70.5,202.5z"/>
						<path class="st22" d="M108.1,201.8c0.1,0.4,0.5,0.8,0.9,0.8h7.7c0.4,0,0.7-0.3,0.6-0.8c-0.1-0.4-0.5-0.8-0.9-0.8h-7.7
							C108.3,201,108,201.3,108.1,201.8z"/>
						<path class="st22" d="M75.1,202.5h7.7c0.4,0,0.7-0.3,0.6-0.8c-0.1-0.4-0.5-0.8-0.9-0.8h-7.7c-0.4,0-0.7,0.3-0.6,0.8
							C74.3,202.2,74.7,202.5,75.1,202.5z"/>
						<path class="st22" d="M124.5,201h-5.1c-0.4,0-0.7,0.3-0.6,0.8c0.1,0.4,0.5,0.8,0.9,0.8h5.1c0.4,0,0.7-0.3,0.6-0.8
							C125.4,201.3,125,201,124.5,201z"/>
						<path class="st24" d="M85.9,202.5h15.4c0.4,0,0.7-0.3,0.6-0.8c-0.1-0.4-0.5-0.8-0.9-0.8H85.6c-0.4,0-0.7,0.3-0.6,0.8
							C85.1,202.2,85.5,202.5,85.9,202.5z"/>
						<path class="st23" d="M136.8,193.3h15.4c0.4,0,0.7-0.3,0.6-0.8c-0.1-0.4-0.5-0.8-0.9-0.8h-15.4c-0.4,0-0.7,0.3-0.6,0.8
							C135.9,193,136.4,193.3,136.8,193.3z"/>
						<path class="st24" d="M155.3,193.3h1.5c0.4,0,0.7-0.3,0.6-0.8c-0.1-0.4-0.5-0.8-0.9-0.8H155c-0.4,0-0.7,0.3-0.6,0.8
							C154.4,193,154.8,193.3,155.3,193.3z"/>
						<path class="st25" d="M159.9,193.3h5c0.4,0,0.7-0.3,0.6-0.8s-0.5-0.8-0.9-0.8h-5c-0.4,0-0.7,0.3-0.6,0.8
							C159.1,193,159.5,193.3,159.9,193.3z"/>
						<path class="st25" d="M126,193.3h7.7c0.4,0,0.7-0.3,0.6-0.8c-0.1-0.4-0.5-0.8-0.9-0.8h-7.7c-0.4,0-0.7,0.3-0.6,0.8
							C125.2,193,125.6,193.3,126,193.3z"/>
						<path class="st25" d="M144.3,197.2c-0.1-0.4-0.5-0.8-0.9-0.8h-16.9c-0.4,0-0.7,0.3-0.6,0.8c0.1,0.4,0.5,0.8,0.9,0.8h16.9
							C144.1,197.9,144.4,197.6,144.3,197.2z"/>
						<path class="st25" d="M165.4,196.4h-18.9c-0.4,0-0.7,0.3-0.6,0.8c0.1,0.4,0.5,0.8,0.9,0.8h18.9c0.4,0,0.7-0.3,0.6-0.8
							C166.2,196.7,165.8,196.4,165.4,196.4z"/>
						<path class="st24" d="M158.6,202.5c0.4,0,0.7-0.3,0.6-0.8c-0.1-0.4-0.5-0.8-0.9-0.8h-1.5c-0.4,0-0.7,0.3-0.6,0.8
							c0.1,0.4,0.5,0.8,0.9,0.8H158.6z"/>
						<path class="st22" d="M160.7,201.8c0.1,0.4,0.5,0.8,0.9,0.8h5c0.4,0,0.7-0.3,0.6-0.8c-0.1-0.4-0.5-0.8-0.9-0.8h-5
							C160.9,201,160.6,201.3,160.7,201.8z"/>
						<path class="st22" d="M127.8,202.5h7.7c0.4,0,0.7-0.3,0.6-0.8c-0.1-0.4-0.5-0.8-0.9-0.8h-7.7c-0.4,0-0.7,0.3-0.6,0.8
							C126.9,202.2,127.3,202.5,127.8,202.5z"/>
						<path class="st24" d="M138.5,202.5h15.4c0.4,0,0.7-0.3,0.6-0.8c-0.1-0.4-0.5-0.8-0.9-0.8h-15.4c-0.4,0-0.7,0.3-0.6,0.8
							C137.7,202.2,138.1,202.5,138.5,202.5z"/>
					</g>
				</g>
			</g>
		</g>
		<path class="st18" d="M378.6,262.6H66.2c-1,0-1.9-0.8-1.9-1.9l0,0c0-1,0.8-1.9,1.9-1.9h312.4c1,0,1.9,0.8,1.9,1.9l0,0
			C380.5,261.8,379.7,262.6,378.6,262.6z"/>
		<path class="st3" d="M399.9,259.7h-355c-1.1,0-2-0.9-2-2v-5.5c0-1.1,0.9-2,2-2h355c1.1,0,2,0.9,2,2v5.5
			C401.9,258.9,401,259.7,399.9,259.7z"/>
		<path class="st9" d="M252.6,233.5c0,0-7.5-2.5-12-3.9c-4.5-1.5-11.7,1.2-16.8,5.1c0,0-3.6,3-2.4,4c1.2,1,7.2-3.8,12.3-4.4
			c0,0-12,7.6-10.8,10.3c0.4,0.9,1.9,0.7,3.7,0c-0.3,0.5-0.4,0.9-0.1,1.2c0.6,0.7,4.1-0.5,7.2-1.9c-0.6,0.4-1,0.9-1,1.3
			c0.1,1.7,9.8-2.7,9.8-2.7s6.2,4,10.4,1.5C253.1,244.1,254.7,237,252.6,233.5z"/>
		<path class="st7" d="M248.7,245.4H111.6c-1,0-1.8,0.8-1.8,1.8v1.2c0,1,0.8,1.8,1.8,1.8h137.1c1,0,1.8-0.8,1.8-1.8v-1.2
			C250.6,246.3,249.7,245.4,248.7,245.4z"/>
		<path class="st19" d="M208.4,175.5l14,66.2c0.4,2-0.9,3.7-2.9,3.7H111.8c-2,0-4-1.7-4.5-3.7l-14-66.2c-0.4-2,0.9-3.7,2.9-3.7
			h107.7C206,171.9,208,173.5,208.4,175.5z"/>
		<path class="st4" d="M205,175.5l14,66.2c0.4,2-0.9,3.7-2.9,3.7H111.8c-2,0-4-1.7-4.5-3.7l-14-66.2c-0.4-2,0.9-3.7,2.9-3.7h104.3
			C202.6,171.9,204.6,173.5,205,175.5z"/>
		<path class="st15" d="M152.8,215.5c-3.8,0-6.9-3.1-6.9-6.9c0-3.8,3.1-6.9,6.9-6.9c3.8,0,6.9,3.1,6.9,6.9
			C159.7,212.5,156.6,215.5,152.8,215.5z M152.8,204.6c-2.2,0-4.1,1.8-4.1,4.1c0,2.2,1.8,4.1,4.1,4.1c2.2,0,4.1-1.8,4.1-4.1
			C156.9,206.4,155.1,204.6,152.8,204.6z"/>
	</g>
	<g>
		<ellipse class="st28" cx="434.1" cy="392.4" rx="39.2" ry="5.4"/>
		<g>
			<path class="st29" d="M456,385.2c-1.6-2-1.7-2.3-3.6-3.7c1.8-6.7,2.9-13.8,2.3-20.7c-0.6-7-3-13.9-7.4-18.5l-27.5-0.6
				c-4.4,4.6-6.8,11.5-7.4,18.5c-0.6,7,0.5,14.1,2.3,20.7c-1.9,1.5-2.1,1.7-3.6,3.7c-1,1.2-1.9,2.8-1.6,4.4c0.2,1.2,1.1,2,2,2.6
				c3.6,2.5,6.7,3.7,10.2,0.9c0.3-0.3,0.7-0.6,1.1-0.7c0.2-0.1,0.5,0,0.7,0c6.4,2.2,13.3,2.4,19.8,0.7c0.4-0.1,0.7-0.2,1.1-0.1
				c0.4,0.1,0.8,0.4,1.1,0.7c3.5,2.8,6.6,1.5,10.2-0.9c0.9-0.6,1.7-1.4,2-2.6C457.9,388,457,386.4,456,385.2z"/>
		</g>
		<g>
			<g>
				<g>
					<path class="st30" d="M446.6,395.1C446.7,395.1,446.7,395.1,446.6,395.1c2-1,3.3-3,3.3-5c0-1.5-0.7-2.9-1.1-4.3
						c-1.5-4.6-1.2-9.5-1.3-14.3c-0.1-4.1-0.7-8.4-3-11.9c-0.6-0.9-1.9-1.5-3.2-1.5l0,0c-1.3,0-2.6,0.6-3.2,1.6
						c-2.2,3.7-2.6,8-2.6,12.2c0.1,4.8,0.7,9.7-0.6,14.3c-0.4,1.4-1,2.9-0.9,4.3c0.1,2,1.5,3.9,3.5,4.9c0,0,0,0,0,0
						c0.1,0,0.1,0,0.2,0.1c0,0,0.1,0,0.1,0C440.8,396.1,444,396.4,446.6,395.1z"/>
				</g>
			</g>
		</g>
		<g>
			<g>
				<g>
					<path class="st30" d="M430.1,395.1C430.1,395.1,430.1,395.1,430.1,395.1c2-1,3.3-3,3.3-5c0-1.5-0.7-2.9-1.1-4.3
						c-1.5-4.6-1.2-9.5-1.3-14.3c-0.1-4.1-0.7-8.4-3-11.9c-0.6-0.9-1.9-1.5-3.2-1.5l0,0c-1.3,0-2.6,0.6-3.2,1.6
						c-2.2,3.7-2.6,8-2.6,12.2c0.1,4.8,0.7,9.7-0.6,14.3c-0.4,1.4-1,2.9-0.9,4.3c0.1,2,1.5,3.9,3.5,4.9c0,0,0,0,0,0
						c0.1,0,0.1,0,0.2,0.1c0,0,0.1,0,0.1,0C424.2,396.1,427.5,396.5,430.1,395.1z"/>
				</g>
			</g>
		</g>
		<g>
			<path class="st31" d="M427.1,395.9c0,0-1.2-2-0.6-4.2c0,0-1.5,3-1.3,4.4C425.2,396.1,426.4,396.2,427.1,395.9z"/>
			<path class="st31" d="M421.7,395.7c0,0-0.6-2.9,0-4.4c0,0-1.5,2.3-1.6,3.8C420.1,395.1,421.1,395.7,421.7,395.7z"/>
			<path class="st31" d="M438.4,395.5c0,0,1.4-1.9,1.1-4.1c0,0,1.2,3.2,0.8,4.5C440.2,395.9,439,395.9,438.4,395.5z"/>
			<path class="st31" d="M444.5,395.7c0,0,0.5-2.8,0-4.3c0,0,1.5,2.3,1.6,3.8C446,395.2,445.2,395.7,444.5,395.7z"/>
		</g>
		<g>
			<g>
				<path class="st32" d="M412.1,318c1,3.4,2.6,6.4,3.4,9.9c0.9,3.5,0.9,7.7-0.9,10.4c-1.1,1.6-2.7,2.4-3.7,4.2c-0.9,1.7-1,4-1.6,6
					c-0.2,0.5-0.3,0.9-0.7,1.2c-0.2,0.2-0.5,0.4-0.8,0.4c-1.4,0.4-3,0-4.3-0.9c-1.3-0.9-2.4-2.4-3.4-3.9c-0.4-0.7-0.8-1.5-1-2.3
					c-0.4-1.3-0.4-2.7-0.4-4.1c-0.1-3.2-0.1-6.6,0.7-9.6c0.8-3,2.2-5.4,3.7-7.9c1.2-2,2.4-4,3.9-5.5c1-1,2.2-1.8,3.4-2.6L412.1,318z
					"/>
			</g>
			<circle class="st32" cx="407.5" cy="314.6" r="2.8"/>
			<circle class="st32" cx="405.4" cy="318.5" r="2.8"/>
			<circle class="st32" cx="401.8" cy="320.5" r="2.8"/>
			<circle class="st32" cx="401.6" cy="324.4" r="2.8"/>
			<circle class="st32" cx="399.7" cy="328.3" r="2.8"/>
			<circle class="st32" cx="398.9" cy="332.8" r="2.8"/>
			<circle class="st32" cx="398.8" cy="337.1" r="2.8"/>
			<circle class="st32" cx="400.1" cy="340.5" r="2.8"/>
			<circle class="st32" cx="400.7" cy="344.7" r="2.8"/>
			<circle class="st32" cx="402.8" cy="348.7" r="2.8"/>
			<circle class="st32" cx="407" cy="349" r="2.8"/>
			<circle class="st32" cx="410" cy="346.5" r="2.8"/>
			<circle class="st32" cx="410.5" cy="342.3" r="2.8"/>
		</g>
		<g>
			<g>
				<path class="st32" d="M454.8,317.6c-1,3.4-2.6,6.4-3.4,9.9c-0.9,3.5-0.9,7.7,0.9,10.4c1.1,1.6,2.7,2.4,3.7,4.2
					c0.9,1.7,1,4,1.6,6c0.2,0.5,0.3,0.9,0.7,1.2c0.2,0.2,0.5,0.4,0.8,0.4c1.4,0.4,3,0,4.3-0.9c1.3-0.9,2.4-2.4,3.4-3.9
					c0.4-0.7,0.8-1.5,1-2.3c0.4-1.3,0.4-2.7,0.4-4.1c0.1-3.2,0.1-6.6-0.7-9.6c-0.8-3-2.2-5.4-3.7-7.9c-1.2-2-2.4-4-3.9-5.5
					c-1-1-2.2-1.8-3.4-2.6L454.8,317.6z"/>
			</g>
			<circle class="st32" cx="459.4" cy="314.2" r="2.8"/>
			<circle class="st32" cx="461.5" cy="318" r="2.8"/>
			<circle class="st32" cx="465.1" cy="320" r="2.8"/>
			<circle class="st32" cx="465.4" cy="323.9" r="2.8"/>
			<circle class="st32" cx="467.2" cy="327.8" r="2.8"/>
			<circle class="st32" cx="468" cy="332.3" r="2.8"/>
			<circle class="st32" cx="468.1" cy="336.6" r="2.8"/>
			<circle class="st32" cx="466.8" cy="340" r="2.8"/>
			<circle class="st32" cx="466.2" cy="344.3" r="2.8"/>
			<circle class="st32" cx="464.1" cy="348.3" r="2.8"/>
			<circle class="st32" cx="459.9" cy="348.5" r="2.8"/>
			<circle class="st32" cx="456.9" cy="346" r="2.8"/>
			<circle class="st32" cx="456.4" cy="341.8" r="2.8"/>
		</g>
		<path class="st29" d="M452,332.8c1.2-2.9,1.9-6.2,1.8-9.6c-0.4-12.1-9.9-18.3-21.3-17.9c-11.4,0.4-20.3,7.1-19.9,19.2
			c0.1,3.1,0.8,6.1,2,8.8c-2.3,2.8-3.6,6.2-3.5,9.8c0.3,9.6,10.4,16.1,22.6,15.8c12.2-0.4,22-7.6,21.7-17.2
			C455.4,338.3,454.1,335.3,452,332.8z"/>
		<ellipse class="st33" cx="433.1" cy="346.7" rx="11.8" ry="10.1"/>
		<path class="st30" d="M458,312.9c0-1.8-1.5-3.3-3.4-3.3c-0.1,0-0.1,0-0.2,0c0-1.8-1.5-3.2-3.3-3.3c-0.3-1.5-1.7-2.7-3.3-2.7
			c-0.3,0-0.7,0.1-1,0.1c-0.5-0.8-1.3-1.3-2.2-1.5c-0.3-1.5-1.7-2.7-3.3-2.7c-1.4,0-2.6,0.9-3.1,2.1c-0.6-0.5-1.4-0.9-2.3-0.9
			c-0.9,0-1.7,0.4-2.3,0.9c-0.6-0.8-1.6-1.4-2.8-1.4c-1.6,0-2.9,1-3.3,2.5c-0.6-0.5-1.4-0.9-2.3-0.9c-1.2,0-2.2,0.6-2.8,1.5
			c-0.6-0.7-1.5-1.1-2.5-1.1c-1.9,0-3.4,1.5-3.4,3.4c0,0,0,0.1,0,0.1c-0.4-0.2-0.9-0.3-1.4-0.3c-1.9,0-3.4,1.5-3.4,3.4
			c0,0.5,0.1,0.9,0.3,1.3c-1.7,0.2-3,1.6-3,3.3c0,0.8,0.3,1.6,0.8,2.2c-0.8,0.6-1.2,1.5-1.2,2.6c0,1.9,1.5,3.4,3.4,3.4
			c0.8,0,1.5-0.3,2-0.7c4.2,2.9,11.2,4.7,19.1,4.7c8.2,0,15.3-2,19.5-5c0.5,0.2,1,0.4,1.6,0.4c1.9,0,3.4-1.5,3.4-3.3
			c0-0.8-0.3-1.6-0.8-2.2C457.5,314.8,458,313.9,458,312.9z"/>
		<g>
			<path class="st34" d="M439.3,329.8c0.2,1.4,1.5,2.4,2.9,2.2c1.4-0.2,2.4-1.5,2.2-2.9c-0.2-1.4-1.5-2.4-2.9-2.2
				C440,327.1,439,328.4,439.3,329.8z"/>
			<path class="st34" d="M422.9,329.8c0.2,1.4,1.5,2.4,2.9,2.2c1.4-0.2,2.4-1.5,2.2-2.9c-0.2-1.4-1.5-2.4-2.9-2.2
				C423.6,327.1,422.7,328.4,422.9,329.8z"/>
			<path class="st34" d="M428.3,338.8c0,1.9,2,4.8,4.5,4.8c2.5,0,4.4-3,4.4-4.9c0-1.9-2-3.3-4.5-3.3
				C430.3,335.4,428.3,336.9,428.3,338.8z"/>
			<path class="st34" d="M439.3,351c-1.5,0.2-3.3-0.8-4.3-1.9c-0.8-0.8-1.3-1.9-1.6-3l0-3.5l-0.8,0l0,3.5c-0.2,1.1-0.7,2.2-1.4,3
				c-1,1.1-2.7,2.1-4.3,1.9c-0.4,0-0.3,0.6,0,0.6c1.7,0.2,3.5-0.9,4.7-2.1c0.7-0.8,1.2-1.7,1.5-2.8c0.3,1,0.8,2,1.6,2.8
				c1.2,1.2,3.1,2.2,4.8,2C439.7,351.6,439.7,351,439.3,351z"/>
		</g>
		<path class="st4" d="M450.4,316.4c0,0-1.4-9.9-4.3-8.4c-2.9,1.4-14.3,11.5,1.1,12L450.4,316.4z"/>
		<path class="st4" d="M449.6,315.8c0,0-0.5-7.6-3.1-7.3C443.7,308.7,449.6,315.8,449.6,315.8z"/>
		<path class="st4" d="M449.8,316.4c0,0,9.5-2.9,9.5,0.4c-0.1,3.3-4.4,17.8-11.3,4.1L449.8,316.4z"/>
		<path class="st4" d="M450.7,316.8c0,0,7.1-2.7,8-0.3C459.6,319.2,450.7,316.8,450.7,316.8z"/>
		<path class="st35" d="M450.9,319.7c-0.8,1.3-2.5,1.7-3.7,0.9c-1.2-0.8-1.6-2.5-0.8-3.8c0.8-1.3,2.5-1.7,3.7-0.9
			C451.4,316.7,451.7,318.4,450.9,319.7z"/>
	</g>
</g>
<g id="designed_by_freepik">
</g>
</svg>
